<svg width="40" height="56" viewBox="0 0 40 56" fill="none" xmlns="http://www.w3.org/2000/svg">
<g filter="url(#filter0_d_2201_151)">
<path fill-rule="evenodd" clip-rule="evenodd" d="M28.084 23.6529C28.0393 23.9311 27.9304 24.1959 27.7654 24.4275C27.6004 24.659 27.3836 24.8512 27.1313 24.9898C26.6231 25.3086 26.1785 25.468 25.7286 25.6274C24.7705 25.9488 23.7621 26.2702 22.6956 26.643C21.5708 27.0157 20.5624 27.3885 19.6626 27.6585C18.5404 28.0313 17.4738 28.3526 16.4602 28.7254C15.6976 29.0425 14.9812 29.4556 14.3297 29.9544C13.7237 30.4877 13.1949 31.0983 12.7576 31.7695C12.3077 32.515 12.0245 33.4766 12.0245 34.5975C12.0245 36.842 12.5856 38.5491 13.7104 39.6161C14.8325 40.7396 16.9127 41.2718 19.996 41.2718C23.1402 41.2718 25.2733 40.6856 26.4008 39.5107C27.5203 38.3357 28.0814 36.6826 28.0814 34.5487V23.6529H28.084ZM19.9987 0C25.5036 0 29.545 1.01553 32.1254 3.09802C34.7085 5.12908 36 7.74119 36 10.8366V37.2148C36 38.2817 35.7777 39.4567 35.386 40.737C34.989 42.0225 34.2056 43.1949 32.9696 44.2592C31.7919 45.3313 30.1643 46.2389 28.0867 46.933C26.0091 47.6272 23.3149 48 20.0013 48C16.6931 48 13.9935 47.6272 11.9186 46.933C9.84369 46.2389 8.21338 45.3313 7.03565 44.2592C5.94004 43.3001 5.11006 42.089 4.62195 40.737C4.22496 39.4592 4 38.2843 4 37.2174V33.001C4 30.7565 4.61666 28.674 5.85262 26.8563C7.08858 24.9898 8.82739 23.7095 11.0744 22.9073C12.1965 22.5345 13.488 22.1618 14.9463 21.681C16.4072 21.1976 17.7517 20.7169 19.1015 20.2927C20.4512 19.8633 21.629 19.434 22.6373 19.0586C23.2458 18.8221 23.8639 18.6094 24.49 18.421L25.501 17.9402C25.8979 17.7268 26.287 17.4055 26.6813 16.9787C27.073 16.5545 27.4091 16.0737 27.6923 15.5389C27.9915 14.9599 28.1457 14.3203 28.1423 13.6724V11.9627C28.1464 11.3361 28.011 10.716 27.7453 10.145C27.523 9.5023 27.073 8.91612 26.4564 8.38393C25.8397 7.84917 24.9955 7.42239 23.9871 7.09845C22.9761 6.78222 21.6316 6.62025 20.1125 6.62025C16.9683 6.62025 14.8907 7.21157 13.7686 8.43535C12.8158 9.50488 12.2547 10.8392 12.1436 12.3329C12.1436 12.6543 11.863 12.8677 11.5243 12.8677L4.67753 12.9757C4.51489 12.9764 4.35856 12.9146 4.24256 12.8039C4.12657 12.6931 4.06032 12.5423 4.05823 12.3844V10.8418C4.05823 9.3429 4.34141 7.95458 4.95807 6.62025C5.57737 5.28334 6.53279 4.16497 7.82169 3.20086C9.11322 2.24189 10.7991 1.44231 12.8185 0.907552C14.7849 0.26481 17.1986 0 20.004 0H19.9987Z" fill="#0A3871"/>
</g>
<defs>
<filter id="filter0_d_2201_151" x="0" y="0" width="40" height="56" filterUnits="userSpaceOnUse" color-interpolation-filters="sRGB">
<feFlood flood-opacity="0" result="BackgroundImageFix"/>
<feColorMatrix in="SourceAlpha" type="matrix" values="0 0 0 0 0 0 0 0 0 0 0 0 0 0 0 0 0 0 127 0" result="hardAlpha"/>
<feOffset dy="4"/>
<feGaussianBlur stdDeviation="2"/>
<feComposite in2="hardAlpha" operator="out"/>
<feColorMatrix type="matrix" values="0 0 0 0 0 0 0 0 0 0 0 0 0 0 0 0 0 0 0.25 0"/>
<feBlend mode="normal" in2="BackgroundImageFix" result="effect1_dropShadow_2201_151"/>
<feBlend mode="normal" in="SourceGraphic" in2="effect1_dropShadow_2201_151" result="shape"/>
</filter>
</defs>
</svg>
